:SAMPLES-PER-SECOND 30
:FRAME-RANGE 1-4244
:FULLY-SPECIFIED
:DEGREES
2255
root  -45.3013 39.1148 14.2378 -1.0329 64.6412 -0.472656
RightUpLeg  -20.6389 -15.7233 -9.08881
RightLeg  37.771 -13.034 -10.8625
RightFoot  1.10091 -1.59837 14.6586
RightToes  -3.31784e-009 0 -3.6325e-017
Spine  13.9582 1.69771 0.978347
Spine1  -3.2814 2.86498 -6.82542
HEad  -38.5087 61.7061 -42.2587
LeftShoulder1  1.00687 0.607439 -28.6617
LeftArm  18.3316 6.75168 -37.4075
LeftForeArm  8.6383 -29.6738 -5.98154
LeftHand  0.312536 -2.28886 -4.54928
RightShoulder  4.76701 6.32312 42.3045
RightArm  5.27366 -7.84956 14.6695
RightForeArm  18.8148 0.790363 15.9466
RightHand  0.57099 4.55151 6.36463
LeftUpLeg  0.327885 2.48427 -5.38155
LeftLeg  15.2873 -4.64747 -0.971565
LeftFoot  -13.3757 0.210736 7.32296
LeftToes  1.0277e-010 -6.71454e-011 3.04227e-011
2256
root  -44.7392 39.204 15.2315 -0.553894 66.628 -0.673462
RightUpLeg  -18.6437 -15.0707 -8.86511
RightLeg  22.8377 -15.4565 -7.22245
RightFoot  1.26885 -1.69836 15.3651
RightToes  -3.31784e-009 0 -3.6325e-017
Spine  13.7392 1.46799 1.03991
Spine1  -3.28693 2.63313 -6.20781
HEad  -37.0325 61.3802 -41.2576
LeftShoulder1  0.998794 0.611142 -28.4216
LeftArm  17.291 6.82935 -36.5287
LeftForeArm  9.17152 -30.3153 -6.1085
LeftHand  0.301258 -2.2781 -4.38563
RightShoulder  4.48206 5.82026 41.8979
RightArm  2.84415 -8.29103 14.1542
RightForeArm  21.0743 -0.879715 15.8003
RightHand  0.577828 4.68323 6.35116
LeftUpLeg  2.12738 2.78714 -3.93395
LeftLeg  13.3208 -7.30118 -1.09474
LeftFoot  -13.7913 0.219473 6.37594
LeftToes  1.0277e-010 -6.71454e-011 3.04227e-011
2257
root  -44.1161 39.1556 16.2696 -0.433655 68.768 -0.726776
RightUpLeg  -15.8715 -13.4056 -9.28262
RightLeg  10.2614 -14.1256 -2.0312
RightFoot  1.38011 -1.57127 14.1147
RightToes  -3.31784e-009 0 -3.6325e-017
Spine  13.7339 1.17564 1.30805
Spine1  -3.02408 2.33076 -5.64956
HEad  -35.0952 60.9451 -39.921
LeftShoulder1  1.02059 0.553282 -28.4855
LeftArm  16.9939 6.6191 -35.1545
LeftForeArm  8.5976 -30.0733 -6.08121
LeftHand  0.269377 -2.09917 -4.01158
RightShoulder  4.38856 5.71219 41.4764
RightArm  1.89722 -8.53715 13.5442
RightForeArm  22.0442 -2.31358 15.8073
RightHand  0.553619 4.54161 6.16947
LeftUpLeg  3.88325 2.97829 -2.47369
LeftLeg  12.6608 -9.96161 -1.11931
LeftFoot  -15.0141 0.261915 5.34903
LeftToes  1.0277e-010 -6.71454e-011 3.04227e-011
2258
root  -43.453 38.9622 17.3572 -0.40863 70.404 -0.374664
RightUpLeg  -13.5281 -10.6228 -9.55364
RightLeg  3.64894 -13.3633 1.13076
RightFoot  2.60274 -2.26785 18.5425
RightToes  -3.31784e-009 0 -3.6325e-017
Spine  13.9163 1.1365 1.67646
Spine1  -2.60823 2.31758 -5.37043
HEad  -32.6098 60.46 -38.2974
LeftShoulder1  1.04053 0.504419 -28.5896
LeftArm  17.4736 6.18722 -33.7428
LeftForeArm  6.9447 -28.8517 -5.87683
LeftHand  0.232662 -1.90249 -3.55219
RightShoulder  4.38235 5.77074 41.1306
RightArm  0.338934 -8.34121 13.0096
RightForeArm  23.3829 -4.33792 15.6843
RightHand  0.55167 4.49954 6.17576
LeftUpLeg  5.48099 2.54624 -1.18637
LeftLeg  13.5048 -11.4881 -1.16757
LeftFoot  -17.0882 0.319395 4.31537
LeftToes  1.0277e-010 -6.71454e-011 3.04227e-011
2259
root  -42.8403 38.9331 18.3771 -2.9281 71.1336 -2.87881
RightUpLeg  -14.3463 -9.9131 -7.25273
RightLeg  6.25279 -10.5992 1.33072
RightFoot  7.60286 -1.09469 6.86696
RightToes  -3.31784e-009 0 -3.6325e-017
Spine  14.4732 1.23176 4.24685
Spine1  -2.1323 2.65942 -4.95146
HEad  -30.0775 60.3105 -36.5183
LeftShoulder1  1.03152 0.534972 -28.6439
LeftArm  18.4946 5.84879 -32.3269
LeftForeArm  4.24692 -26.9366 -5.57185
LeftHand  0.19025 -1.76467 -2.94329
RightShoulder  4.56517 6.1415 41.202
RightArm  -0.377908 -7.68095 12.356
RightForeArm  22.8545 -6.27236 15.7233
RightHand  0.527592 4.25842 6.05819
LeftUpLeg  7.45115 0.238972 0.697245
LeftLeg  12.7991 -10.465 -0.889118
LeftFoot  -18.1784 0.265001 2.60847
LeftToes  1.0277e-010 -6.71454e-011 3.04227e-011
2260
root  -42.2152 38.7515 19.4082 -6.08417 70.8095 -5.98703
RightUpLeg  -16.229 -10.8923 -4.29158
RightLeg  13.1627 -9.16932 -0.974297
RightFoot  3.55382 -0.863267 6.78212
RightToes  -3.31784e-009 0 -3.6325e-017
Spine  15.3091 1.12674 7.7375
Spine1  -2.07058 3.36764 -6.51075
HEad  -29.0687 60.3132 -36.4574
LeftShoulder1  0.977067 0.738393 -29.2397
LeftArm  19.4673 5.76999 -30.5115
LeftForeArm  0.509574 -24.9514 -5.31505
LeftHand  0.159755 -1.48057 -2.57549
RightShoulder  5.07581 7.12239 41.6046
RightArm  -2.77614 -6.30376 11.866
RightForeArm  23.8024 -7.45588 15.414
RightHand  0.522192 4.09646 6.10719
LeftUpLeg  7.54702 -4.27343 2.30392
LeftLeg  16.3595 -6.0106 -1.34879
LeftFoot  -19.9087 0.117212 -0.0299025
LeftToes  1.0277e-010 -6.71454e-011 3.04227e-011
2261
root  -41.5323 38.5693 20.3869 -7.08374 70.6417 -6.75537
RightUpLeg  -17.2019 -14.5116 -2.30889
RightLeg  18.3926 -4.92956 -1.67981
RightFoot  -0.0232601 -0.687657 6.92915
RightToes  -3.31784e-009 0 -3.6325e-017
Spine  15.9333 0.84774 9.69443
Spine1  -1.8496 3.65116 -7.35586
HEad  -27.5812 60.641 -36.3093
LeftShoulder1  0.961771 0.817852 -29.7222
LeftArm  19.3107 6.96853 -29.5538
LeftForeArm  -3.19743 -22.5864 -5.41582
LeftHand  0.112117 -0.893849 -1.9939
RightShoulder  5.77345 8.6657 41.289
RightArm  -4.56518 -4.97458 11.9095
RightForeArm  23.7712 -7.58656 15.2247
RightHand  0.490961 3.70071 6.00477
LeftUpLeg  6.01567 -5.71283 3.40518
LeftLeg  23.1063 -4.459 -1.75407
LeftFoot  -20.0024 -0.220324 -4.49115
LeftToes  1.0277e-010 -6.71454e-011 3.04227e-011
